<?xml version="1.0" encoding="UTF-8"?>
<svg id="Layer_1" xmlns="http://www.w3.org/2000/svg" version="1.1" viewBox="0 0 682.7 101">
  <!-- Generator: Adobe Illustrator 29.8.1, SVG Export Plug-In . SVG Version: 2.1.1 Build 2)  -->
  <defs>
    <style>
      .st0 {
        fill: #4d4d4d;
      }

      .st1 {
        fill: #0073aa;
      }
    </style>
  </defs>
  <path class="st1" d="M0,72V4h7v55l41.5-29.7,35.2,25.5c13.1-.5,27.9,1.4,40.8.3,23-2,29.7-32.6,9.6-44.7s-7.1-3.4-7.6-3.4h-30.5v32h-6V0h34.5c15.2,0,29.2,17.7,28.5,32.5-1.6,36.7-45.6,29.3-70.5,29.5l-34-23.9L0,72Z"/>
  <polygon class="st0" points="90 88 90 73 96 73 96 101 48.5 67 0 101 1 92.5 48.5 58.3 90 88"/>
  <g>
    <path class="st0" d="M192.9,71.9c3.5,2.2,8.6,4,14,4,8,0,12.7-4.2,12.7-10.3s-3.2-8.9-11.4-12.1c-9.9-3.5-16-8.6-16-17.2s7.8-16.5,19.6-16.5,10.7,1.4,13.4,3l-2.2,6.4c-2-1.1-6-2.9-11.5-2.9-8.3,0-11.4,5-11.4,9.1s3.7,8.5,12.1,11.7c10.3,4,15.5,8.9,15.5,17.8s-6.9,17.5-21.2,17.5-12.2-1.7-15.5-3.9l2-6.6Z"/>
    <path class="st0" d="M251.8,25.6c0,2.7-1.9,4.9-5,4.9s-4.8-2.2-4.8-4.9,2.1-4.9,5-4.9,4.9,2.2,4.9,4.9ZM243,81.4v-43.6h7.9v43.6h-7.9Z"/>
    <path class="st0" d="M278.6,25.3v12.5h11.3v6h-11.3v23.5c0,5.4,1.5,8.5,5.9,8.5s3.6-.3,4.6-.5l.4,5.9c-1.5.6-4,1.1-7,1.1s-6.7-1.2-8.5-3.3c-2.2-2.3-3.1-6.2-3.1-11.3v-23.8h-6.7v-6h6.7v-10.4l7.7-2.1Z"/>
    <path class="st0" d="M307.6,61.1c.2,10.7,7,15.1,14.9,15.1s9.1-1,12.1-2.2l1.3,5.7c-2.8,1.3-7.6,2.7-14.5,2.7-13.4,0-21.4-8.8-21.4-22s7.7-23.5,20.4-23.5,18,12.5,18,20.5-.2,2.9-.3,3.7h-30.6ZM330.9,55.4c0-5-2.1-12.9-11-12.9s-11.5,7.4-12.1,12.9h23.1Z"/>
    <path class="st0" d="M387.4,62.3l-6.3,19.1h-8.1l20.6-60.7h9.4l20.7,60.7h-8.4l-6.5-19.1h-21.5ZM407.3,56.2l-5.9-17.5c-1.3-4-2.2-7.6-3.1-11.1h-.2c-.9,3.6-1.9,7.3-3.1,11l-5.9,17.5h18.3Z"/>
    <path class="st0" d="M473.9,17.5v52.6c0,3.9,0,8.3.4,11.2h-7.1l-.4-7.6h-.2c-2.4,4.9-7.7,8.5-14.8,8.5-10.5,0-18.6-8.9-18.6-22.1,0-14.5,8.9-23.4,19.5-23.4s11.2,3.1,13.1,6.7h.2v-26h7.9ZM465.9,55.6c0-1,0-2.3-.4-3.3-1.2-5-5.5-9.2-11.4-9.2s-13,7.2-13,16.8,4.3,16.1,12.9,16.1,10.2-3.5,11.6-9.4c.3-1.1.4-2.2.4-3.4v-7.6Z"/>
    <path class="st0" d="M495,37.9l8.5,24.5c1.4,4,2.6,7.6,3.5,11.2h.3c1-3.6,2.2-7.2,3.7-11.2l8.5-24.5h8.3l-17.1,43.6h-7.6l-16.6-43.6h8.5Z"/>
    <path class="st0" d="M549,25.6c0,2.7-1.9,4.9-5,4.9s-4.8-2.2-4.8-4.9,2.1-4.9,4.9-4.9,4.9,2.2,4.9,4.9ZM540.2,81.4v-43.6h7.9v43.6h-7.9Z"/>
    <path class="st0" d="M565.1,73.3c2.3,1.5,6.5,3.1,10.4,3.1,5.8,0,8.5-2.9,8.5-6.5s-2.2-5.8-8.1-8c-7.8-2.8-11.5-7.1-11.5-12.3s5.7-12.8,15-12.8,8.3,1.3,10.7,2.7l-2,5.8c-1.7-1.1-4.9-2.5-8.9-2.5s-7.3,2.7-7.3,5.9,2.6,5.2,8.3,7.4c7.6,2.9,11.4,6.7,11.4,13.1s-5.9,13-16.3,13-9.2-1.2-12.2-3l2-6Z"/>
    <path class="st0" d="M646.2,59.3c0,16.1-11.2,23.1-21.7,23.1s-20.9-8.6-20.9-22.4,9.5-23.1,21.6-23.1,21,9.1,21,22.4ZM611.7,59.7c0,9.5,5.5,16.7,13.2,16.7s13.2-7.1,13.2-16.9-3.7-16.7-13-16.7-13.4,8.6-13.4,16.9Z"/>
    <path class="st0" d="M661.2,51.4c0-5.1,0-9.5-.4-13.6h6.9l.3,8.5h.4c2-5.8,6.8-9.5,12.1-9.5s1.5,0,2.2.3v7.5c-.8-.2-1.6-.3-2.7-.3-5.6,0-9.5,4.2-10.6,10.2-.2,1.1-.4,2.3-.4,3.7v23.2h-7.8v-30Z"/>
  </g>
</svg>