<?xml version="1.0" encoding="UTF-8"?>
<svg id="Layer_1" xmlns="http://www.w3.org/2000/svg" version="1.1" viewBox="0 0 153 101">
  <!-- Generator: Adobe Illustrator 29.8.1, SVG Export Plug-In . SVG Version: 2.1.1 Build 2)  -->
  <defs>
    <style>
      .st0 {
        fill: #4d4d4d;
      }

      .st1 {
        fill: #0073aa;
      }
    </style>
  </defs>
  <path class="st1" d="M0,72V4h7v55l41.5-29.7,35.2,25.5c13.1-.5,27.9,1.4,40.8.3,23-2,29.7-32.6,9.6-44.7s-7.1-3.4-7.6-3.4h-30.5v32h-6V0h34.5c15.2,0,29.2,17.7,28.5,32.5-1.6,36.7-45.6,29.3-70.5,29.5l-34-23.9L0,72Z"/>
  <polygon class="st0" points="90 88 90 73 96 73 96 101 48.5 67 0 101 1 92.5 48.5 58.3 90 88"/>
</svg>